<?xml version="1.0" encoding="iso-8859-1"?>
<!-- Generator: Adobe Illustrator 18.0.0, SVG Export Plug-In . SVG Version: 6.00 Build 0)  -->
<!DOCTYPE svg PUBLIC "-//W3C//DTD SVG 1.1//EN" "http://www.w3.org/Graphics/SVG/1.1/DTD/svg11.dtd">
<svg version="1.1" id="Capa_1" xmlns="http://www.w3.org/2000/svg" xmlns:xlink="http://www.w3.org/1999/xlink" x="0px" y="0px"
	 viewBox="0 0 59.234 59.234" style="enable-background:new 0 0 59.234 59.234;" xml:space="preserve">
<g>
	<path style="fill:#1D1D1B;" d="M38.403,9.79c-0.092-2.805-0.172-5.61-0.308-8.413c-0.008-0.157-0.122-0.233-0.242-0.251
		c-0.429-0.494-1.108-0.76-1.758-0.71c-0.474,0.036-1.254,0.292-1.16,0.885c0.014,0.084,0.131,0.15,0.21,0.119
		c0.025-0.01,0.052-0.013,0.079-0.017c0.065,1.769,0.165,3.536,0.258,5.304c0.035,0.669,0.596,4.832-0.258,5.609
		c-1.01-0.547-0.869-5.3-0.888-5.772c-0.074-1.831-0.142-3.658-0.311-5.483c-0.001-0.006-0.006-0.008-0.006-0.013
		c0.013-0.098-0.015-0.203-0.117-0.275c-0.744-0.529-1.713-0.503-2.402,0.048c-0.116-0.004-0.235,0.068-0.239,0.221l0,0.002
		c-0.003,0.004-0.007,0.006-0.011,0.01c-0.074,0.083-0.053,0.175,0.006,0.229c-0.094,3.71-0.077,7.474,0.111,11.179
		c-0.035-0.028-0.079-0.046-0.134-0.033c-0.33,0.074-0.555,0.234-0.911,0.132c-0.376-0.107-0.628-0.359-0.757-0.723
		c-0.01-0.027-0.029-0.044-0.048-0.059c0.087-3.523,0.159-7.083,0-10.603c0.015-0.028,0.025-0.059,0.021-0.093
		c-0.084-0.681-0.937-1.025-1.543-1.074c-0.731-0.059-1.453,0.249-1.815,0.9c-0.015,0.026-0.008,0.053-0.01,0.08
		c-0.005,0.02-0.023,0.03-0.023,0.054c-0.005,0.979,0.218,11.373-0.236,11.375c-0.089,0-0.131,0.09-0.119,0.164
		c-0.138,0.057-0.28,0.107-0.456,0.101c-0.225-0.008-0.457-0.068-0.66-0.177c-1.301-1.753-0.866-4.589-0.859-6.613
		c0.006-1.625,0.079-3.255-0.126-4.868c0.076-0.057,0.107-0.173,0.058-0.26c-0.27-0.479-1.067-0.527-1.553-0.462
		c-0.594,0.078-1.212,0.401-1.473,0.964c-0.045,0.098-0.002,0.185,0.069,0.227c-0.167,2.5-0.17,5.004-0.159,7.509
		c0.007,1.751-0.268,3.835,0.233,5.534c0.521,1.768,1.971,2.563,3.639,2.844c1.808,0.422,2.504,4.331,2.701,5.823
		c0.209,1.581,0.071,3.347,0.089,4.951c0.033,2.971,0.029,5.942-0.015,8.913c-0.088,5.896-0.457,11.776-0.632,17.668
		c-0.526,2.342,1.291,4.203,3.708,4.477c2.163,0.245,5.104-1.47,4.378-3.952c-0.591-11.544-1.877-23.186-3.188-34.675
		c0.007-0.022,0.017-0.044,0.012-0.069c-0.653-3.105,3.853-1.918,5.198-2.529c0.987-0.449,1.41-1.08,1.697-2.114
		C38.945,14.085,38.462,11.594,38.403,9.79z M37.93,13.997c-0.565,2.547-2.412,3.043-4.516,3.644
		c-1.119,0.319-2.065,0.712-2.303,1.523c-0.115,0.009-0.219,0.081-0.207,0.234c0.88,11.888,1.802,23.94,3.417,35.759
		c0.031,2.444-1.883,4.028-4.349,3.5c-1.966-0.42-2.989-1.835-3.077-3.663c0.036-0.026,0.065-0.064,0.07-0.119
		c0.883-8.848,0.957-17.837,0.881-26.722c-0.024-2.82,1.221-9.471-2.106-10.783c0.045-0.109,0.021-0.25-0.118-0.272
		c-6.231-0.988-4.359-11.009-4.546-15.691c0.365-0.299,0.737-0.531,1.225-0.585c0.438-0.048,0.774,0.157,1.17,0.217
		c-0.341,2.486-0.18,5.083-0.177,7.587c0.002,1.695,0.03,3.214,1.239,4.5c0.132,0.14,0.296,0.058,0.364-0.074
		c0.115,0.047,0.239,0.08,0.373,0.096c0.407,0.049,1.051-0.062,1.183-0.509c0.041-0.139-0.089-0.234-0.214-0.214
		c0.914-1.573,0.427-10.19,0.421-11.384c0-0.025-0.019-0.035-0.024-0.056c0.349-0.323,0.797-0.487,1.287-0.452
		c0.554,0.04,0.802,0.351,1.181,0.637c-0.187,3.607-0.132,7.26-0.067,10.871c0.004,0.194,0.188,0.25,0.325,0.195
		c0.119,0.328,0.404,0.59,0.735,0.715c0.401,0.152,1.105,0.17,1.314-0.29c0.003-0.006,0.001-0.013,0.003-0.019
		c0.084,0.083,0.255,0.052,0.262-0.102c0.173-3.774,0.167-7.609,0.048-11.386c0.593-0.324,1.341-0.302,1.892,0.1
		c0.037,0.027,0.073,0.042,0.108,0.048c-0.059,3.27-0.244,6.99,0.328,10.188c0.157,0.878,0.671,1.841,1.639,1.192
		c0.068-0.046,0.082-0.121,0.07-0.189c0.385-0.315,0.421-0.993,0.41-1.69c-0.05-3.138-0.23-6.293-0.41-9.426
		c-0.008-0.149-0.116-0.221-0.23-0.242c0.633-0.351,1.488-0.078,1.971,0.465c0.014,0.016,0.03,0.022,0.045,0.034
		c0.053,2.719,0.154,5.437,0.247,8.155C37.838,11.043,38.205,12.753,37.93,13.997z"/>
</g>
<g>
</g>
<g>
</g>
<g>
</g>
<g>
</g>
<g>
</g>
<g>
</g>
<g>
</g>
<g>
</g>
<g>
</g>
<g>
</g>
<g>
</g>
<g>
</g>
<g>
</g>
<g>
</g>
<g>
</g>
</svg>
