<?xml version="1.0" encoding="iso-8859-1"?>
<!-- Generator: Adobe Illustrator 18.0.0, SVG Export Plug-In . SVG Version: 6.00 Build 0)  -->
<!DOCTYPE svg PUBLIC "-//W3C//DTD SVG 1.1//EN" "http://www.w3.org/Graphics/SVG/1.1/DTD/svg11.dtd">
<svg version="1.1" id="Capa_1" xmlns="http://www.w3.org/2000/svg" xmlns:xlink="http://www.w3.org/1999/xlink" x="0px" y="0px"
	 viewBox="0 0 58.114 58.114" style="enable-background:new 0 0 58.114 58.114;" xml:space="preserve">
<g>
	
		<line style="fill:none;stroke:#1D1D1B;stroke-width:0;stroke-linecap:round;stroke-linejoin:round;" x1="27.959" y1="19.906" x2="27.959" y2="19.899"/>
	<path style="fill:#1D1D1B;" d="M33.796,4.09c-0.343-0.483-5.169-5.041-5.852-3.911c-0.046,0.001-0.094,0.011-0.144,0.037
		c-7.072,3.666-8.9,13.359-4.238,19.687c0.059,0.081,0.196,0.055,0.214-0.032c1.388,1.022,4.391,0.794,3.979,2.992
		c-0.017,0.092,0.057,0.164,0.134,0.177c-1.433,8.213-2.481,16.593-3.415,24.869c-0.462,4.097-0.522,9.125,4.392,10.198
		c0.153,0.033,0.251-0.074,0.271-0.193c3.609,0.572,4.209-5.075,4.244-7.93c0.11-8.802-1.534-18.163-2.87-26.901
		c0.037,0.038,0.107,0.011,0.092-0.047c-0.413-1.599,1.588-2.182,2.656-2.609c0.485-0.193,1.008-0.456,1.37-0.848
		c0.081,0.01,0.166-0.015,0.24-0.1C38.83,14.916,36.991,8.586,33.796,4.09z M32.735,19.999c-0.576,0.226-1.167,0.413-1.668,0.79
		c-0.475,0.357-0.767,0.806-0.816,1.289c-0.12-0.032-0.278,0.03-0.267,0.179c0.451,5.7,1.224,11.382,1.878,17.062
		c0.378,3.279,3.327,18.96-3.376,18.176c-2.316-0.992-3.762-4.262-3.762-6.538c0-1.016,0.178-2.041,0.296-3.047
		c0.349-2.978,0.788-5.948,1.182-8.92c0.743-5.606,1.601-11.215,2.094-16.849c0.007-0.077-0.059-0.118-0.125-0.122
		c-0.089-0.553-0.47-1.046-0.994-1.37c-0.546-0.338-1.171-0.48-1.78-0.659c-0.845-0.248-1.377-0.604-1.986-1.22
		c-0.009-0.009-0.019-0.008-0.028-0.014c-2.424-6.799-2.338-13.828,4.734-17.991c0.109-0.064,0.149-0.158,0.149-0.252
		c0.971-0.029,3.747,2.46,3.939,2.671c0.962,1.052,1.771,2.408,2.421,3.686c1.959,3.853,2.81,8.161,0.058,11.811
		c-0.031,0.011-0.064,0.016-0.09,0.043C34.015,19.322,33.526,19.689,32.735,19.999z"/>
	<path style="fill:#1D1D1B;" d="M29.121,17.81c-3.423-0.35-4.911-3.553-4.969-6.635c-0.034-1.794,0.095-4.509,1.213-6.068
		c0.058-0.081-0.068-0.172-0.135-0.104c-1.914,1.912-1.945,6.221-1.338,8.629c0.654,2.596,2.516,4.551,5.228,4.801
		C29.521,18.469,29.515,17.85,29.121,17.81z"/>
</g>
<g>
</g>
<g>
</g>
<g>
</g>
<g>
</g>
<g>
</g>
<g>
</g>
<g>
</g>
<g>
</g>
<g>
</g>
<g>
</g>
<g>
</g>
<g>
</g>
<g>
</g>
<g>
</g>
<g>
</g>
</svg>
